<svg width="0" height="0" class="hidden">
  <symbol fill="none" xmlns="http://www.w3.org/2000/svg" viewBox="0 0 44 44" id="inst">
    <path fill-rule="evenodd" clip-rule="evenodd" d="M22 0C9.85 0 0 9.85 0 22s9.85 22 22 22 22-9.85 22-22S34.15 0 22 0zm-4.837 10.338c1.252-.057 1.652-.071 4.838-.071h-.004c3.188 0 3.587.014 4.838.07 1.25.058 2.102.256 2.85.546.773.3 1.425.7 2.078 1.353a5.76 5.76 0 011.354 2.078c.289.746.487 1.599.546 2.848.056 1.252.07 1.652.07 4.838 0 3.187-.014 3.586-.07 4.837-.06 1.249-.257 2.102-.546 2.848a5.761 5.761 0 01-1.354 2.078 5.74 5.74 0 01-2.077 1.355c-.746.29-1.6.488-2.85.545-1.25.057-1.65.07-4.836.07-3.187 0-3.586-.013-4.838-.07-1.249-.057-2.102-.255-2.848-.545a5.745 5.745 0 01-2.078-1.355 5.75 5.75 0 01-1.353-2.078c-.29-.746-.488-1.599-.545-2.848-.057-1.252-.071-1.65-.071-4.837 0-3.186.014-3.587.07-4.838.057-1.249.255-2.102.546-2.848a5.76 5.76 0 011.354-2.078 5.745 5.745 0 012.078-1.353c.746-.29 1.599-.488 2.848-.545z" fill="#9FB5C8"></path>
    <path fill-rule="evenodd" clip-rule="evenodd" d="M20.948 12.381h1.053c3.133 0 3.504.011 4.741.068 1.144.052 1.765.243 2.179.404.547.212.938.466 1.348.877.41.41.665.802.878 1.35.16.413.352 1.034.404 2.178.057 1.236.069 1.608.069 4.74 0 3.13-.012 3.502-.069 4.74-.052 1.143-.243 1.764-.404 2.177a3.628 3.628 0 01-.878 1.348c-.41.41-.8.665-1.348.878-.413.161-1.035.352-2.179.404-1.236.056-1.608.068-4.74.068-3.134 0-3.505-.012-4.742-.068-1.144-.053-1.765-.244-2.179-.405a3.634 3.634 0 01-1.35-.877c-.41-.41-.664-.8-.877-1.349-.161-.413-.352-1.034-.404-2.178-.057-1.237-.068-1.608-.068-4.742 0-3.133.011-3.503.068-4.74.052-1.143.243-1.764.404-2.178.212-.547.467-.939.878-1.35.41-.41.802-.664 1.349-.877.414-.162 1.035-.352 2.179-.405 1.082-.049 1.502-.063 3.688-.066v.003zm7.316 1.948a1.408 1.408 0 100 2.817 1.408 1.408 0 000-2.817zM15.976 22a6.026 6.026 0 1112.051 0 6.026 6.026 0 01-12.051 0z" fill="#9FB5C8"></path>
    <path fill-rule="evenodd" clip-rule="evenodd" d="M22.001 18.089a3.911 3.911 0 110 7.822 3.911 3.911 0 010-7.822z" fill="#9FB5C8"></path>
  </symbol>
  <symbol fill="none" xmlns="http://www.w3.org/2000/svg" viewBox="0 0 44 44" id="twit">
    <path fill-rule="evenodd" clip-rule="evenodd" d="M22 0C9.85 0 0 9.85 0 22s9.85 22 22 22 22-9.85 22-22S34.15 0 22 0zm-.613 18.643l-.046-.761c-.138-1.973 1.077-3.775 3-4.474.709-.249 1.909-.28 2.694-.063.308.094.892.404 1.308.684l.754.513.83-.264c.463-.14 1.078-.373 1.355-.529.262-.14.492-.217.492-.17 0 .264-.569 1.165-1.046 1.662-.646.699-.462.761.846.295.785-.264.8-.264.647.031-.092.155-.57.7-1.077 1.196-.862.855-.908.948-.908 1.663 0 1.103-.524 3.402-1.047 4.66-.97 2.362-3.047 4.8-5.124 6.028-2.924 1.725-6.817 2.16-10.095 1.15-1.093-.342-2.97-1.212-2.97-1.367 0-.047.57-.11 1.262-.125a8.665 8.665 0 004.124-1.15l.831-.496-.954-.327c-1.354-.466-2.57-1.538-2.878-2.547-.092-.327-.061-.342.8-.342l.893-.016-.754-.357c-.893-.45-1.708-1.212-2.108-1.989-.293-.559-.662-1.973-.554-2.081.03-.047.354.046.723.17 1.062.389 1.2.296.585-.357-1.154-1.18-1.508-2.936-.954-4.599l.261-.745 1.016 1.01c2.077 2.035 4.524 3.247 7.325 3.604l.77.093z" fill="#9FB5C8"></path>
  </symbol>
  <symbol fill="none" xmlns="http://www.w3.org/2000/svg" viewBox="0 0 44 44" id="fb">
    <path fill-rule="evenodd" clip-rule="evenodd" d="M22 0C9.85 0 0 9.85 0 22s9.85 22 22 22 22-9.85 22-22S34.15 0 22 0zm2.293 22.966v11.97h-4.952v-11.97h-2.474v-4.124h2.474v-2.476C19.34 13 20.738 11 24.707 11h3.305v4.125h-2.066c-1.545 0-1.647.576-1.647 1.652l-.006 2.065h3.742l-.438 4.124h-3.304z" fill="#9FB5C8"></path>
  </symbol>
</svg>